<svg height="496pt" viewBox="0 0 496 496" width="496pt" xmlns="http://www.w3.org/2000/svg"><path d="m176 488c64 0 168-213.960938 168-320s-75.199219-160-168-160-168 53.960938-168 160c0 63.761719 37.601562 166.488281 81.503906 238.3125 0 .042969.035156.078125.082032.078125-.046876 0-.082032-.035156-.082032-.078125 29.113282 47.625 60.976563 81.6875 86.496094 81.6875zm-97.136719-181.488281 101.824219-101.824219-28.289062-28.289062 152.738281-50.910157-101.824219 101.824219 28.289062 28.289062zm0 0" fill="#57a4ff"/><g fill="#004fac"><path d="m350.6875 145.449219c-9.535156-89.074219-75.894531-145.449219-174.6875-145.449219-106.910156 0-176 65.945312-176 168 1.585938 37.101562 8.78125 73.75 21.34375 108.695312-14.105469 15.550782-21.34375 30.105469-21.34375 43.304688 0 33.742188 45.734375 68.886719 84.496094 92.625 30.40625 48.664062 63.96875 83.375 91.503906 83.375 13.175781 0 27.726562-8 42.65625-21.601562 35.140625 12.714843 72.011719 19.996093 109.34375 21.601562 102.054688 0 168-69.089844 168-176 0-97.390625-56.847656-165.078125-145.3125-174.550781zm-334.6875 174.550781c.953125-9.597656 4.953125-18.640625 11.414062-25.800781 10.921876 29.941406 23.949219 59.074219 38.984376 87.175781-32-23.285156-50.398438-45.375-50.398438-61.375zm22.121094-42.792969c-.132813-.835937-.402344-1.648437-.800782-2.398437-12.5625-34.292969-19.753906-70.320313-21.320312-106.808594 0-92.335938 62.808594-152 160-152s160 59.664062 160 152c0 107.886719-104.671875 312-160 312-39.496094 0-104.121094-104-137.878906-202.792969zm289.878906 202.792969c-32.964844-1.359375-65.554688-7.527344-96.734375-18.3125 59.644531-65.765625 120.734375-210.488281 120.734375-293.6875 0-2.167969-.207031-4.222656-.273438-6.351562 79.328126 9.648437 128.273438 69.449218 128.273438 158.351562 0 97.191406-59.664062 160-152 160zm0 0"/><path d="m239.382812 257.441406c.640626-2.699218-.167968-5.535156-2.125-7.496094l-22.632812-22.632812 96.167969-96.160156c2.625-2.625 3.097656-6.707032 1.148437-9.863282-1.949218-3.15625-5.8125-4.558593-9.332031-3.386718l-152.738281 50.898437c-2.628906.875-4.613282 3.050781-5.25 5.746094-.636719 2.699219.164062 5.53125 2.121094 7.492187l22.632812 22.632813-96.167969 96.175781c-2.285156 2.289063-2.96875 5.730469-1.734375 8.71875 1.238282 2.988282 4.15625 4.9375 7.390625 4.9375.859375.003906 1.714844-.136718 2.527344-.40625l152.738281-50.898437c2.632813-.878907 4.621094-3.058594 5.253906-5.757813zm-130.894531 30.757813 77.855469-77.855469c3.125-3.125 3.125-8.1875 0-11.3125l-19.144531-19.136719 108.304687-36.09375-77.855468 77.855469c-3.125 3.125-3.125 8.1875 0 11.3125l19.152343 19.136719zm0 0"/></g></svg>